<?xml version="1.0" standalone="no"?><!DOCTYPE svg PUBLIC "-//W3C//DTD SVG 1.1//EN" "http://www.w3.org/Graphics/SVG/1.1/DTD/svg11.dtd"><svg t="1682171103142" class="icon" viewBox="0 0 1024 1024" version="1.1" xmlns="http://www.w3.org/2000/svg" p-id="867" xmlns:xlink="http://www.w3.org/1999/xlink" width="200" height="200"><path d="M900.3008 194.72384a122.71616 122.71616 0 0 1 122.55232 122.88v409.6c0 67.87072-54.8864 122.88-122.55232 122.88H365.52704a122.4704 122.4704 0 0 1-92.5696-42.35264l-223.15008-257.72032a41.04192 41.04192 0 0 1-0.04096-53.6576l223.10912-259.072a122.4704 122.4704 0 0 1 92.81536-42.55744z m0 81.92H365.69088a40.79616 40.79616 0 0 0-30.9248 14.17216l-200.04864 232.2432 199.96672 231.0144a40.83712 40.83712 0 0 0 25.8048 13.76256l5.03808 0.32768H900.3008c22.528 0 40.83712-18.35008 40.83712-40.96v-409.6c0-22.60992-18.26816-40.96-40.83712-40.96z m-326.61504 112.51712l3.56352 3.15392 72.0896 72.13056 72.21248-72.0896a40.96 40.96 0 1 1 61.11232 54.35392l-3.19488 3.52256-72.17152 72.13056 72.17152 72.21248a40.96 40.96 0 1 1-54.35392 61.11232l-3.56352-3.19488-72.17152-72.17152-72.13056 72.17152a40.96 40.96 0 1 1-61.11232-54.35392l3.15392-3.56352 72.17152-72.21248-72.17152-72.0896A40.96 40.96 0 1 1 573.6448 389.12z" fill="#0d56f0" p-id="868"></path></svg>